#!OML:ASF E:\motion texture\Top Level 1\Subject 1\Session 1\male.ASF
:FULLY-SPECIFIED
:DEGREES
414
root 11.0582 17.7944 5.89965 155.439 -93.8435 -156.544
lowerback 3.98896 -3.33655 -4.26723
upperback -1.11228 -4.63836 1.26195
thorax -2.93965 -2.22253 3.974
lowerneck -21.7236 -3.74467 -5.90711
upperneck 17.3425 -4.83752 6.82241
head 9.3583 -1.90184 2.63887
rclavicle -4.38569e-015 -7.95139e-015
rhumerus -59.1115 7.56548 -80.1619
rradius 56.9248
rwrist -5.13548
rhand -13.0888 -9.50946
rfingers 7.12502
rthumb 13.0076 -39.0839
lclavicle -4.38569e-015 -7.95139e-015
lhumerus -11.9597 -17.9277 96.9874
lradius 74.3657
lwrist 2.99254
lhand -17.5364 4.67702
lfingers 7.12502
lthumb 8.7177 34.477
rfemur -54.3382 -11.2188 17.2971
rtibia 68.0022
rfoot 5.89813 182.361
rtoes 13.2826
lfemur -8.45455 -5.30941 -26.4192
ltibia 23.4815
lfoot 529.757 -185.03
ltoes 5.69959
415
root 10.9312 17.8186 5.89038 156.627 -94.1354 -157.977
lowerback 4.35929 -3.61094 -4.33413
upperback -1.04347 -5.02045 1.34787
thorax -3.02599 -2.4098 4.14346
lowerneck -21.8514 -3.5125 -5.71073
upperneck 17.3641 -4.50879 6.54889
head 9.35272 -1.76251 2.55913
rclavicle 1.94933e-014 -1.59028e-015
rhumerus -60.6832 7.47124 -79.1936
rradius 57.2559
rwrist -5.32214
rhand -12.9975 -9.42527
rfingers 7.12502
rthumb 13.0956 -38.9941
lclavicle 1.94933e-014 -1.59028e-015
lhumerus -10.8777 -17.9936 96.0401
lradius 76.2453
lwrist 3.16932
lhand -17.3638 4.54307
lfingers 7.12502
lthumb 8.88432 34.336
rfemur -57.0958 -11.2389 17.5392
rtibia 66.6554
rfoot 5.81205 182.017
rtoes 14.2252
lfemur -7.3553 -5.74055 -26.5755
ltibia 22.8367
lfoot 529.684 -184.846
ltoes 5.66886
416
root 10.8018 17.8411 5.88079 157.632 -94.362 -159.193
lowerback 4.66078 -3.85478 -4.36483
upperback -0.982091 -5.35719 1.4364
thorax -3.08668 -2.57581 4.29064
lowerneck -21.9756 -3.29073 -5.51655
upperneck 17.4001 -4.19964 6.29177
head 9.35506 -1.631 2.4827
rclavicle -1.41634e-015 7.15625e-015
rhumerus -62.1952 7.40002 -78.2072
rradius 57.5821
rwrist -5.47745
rhand -12.9313 -9.41007
rfingers 7.12502
rthumb 13.1594 -38.9748
lclavicle -1.41634e-015 7.15625e-015
lhumerus -9.82861 -18.0229 95.0258
lradius 77.9988
lwrist 3.38199
lhand -17.2187 4.41289
lfingers 7.12502
lthumb 9.02427 34.1999
rfemur -59.793 -11.1687 17.7993
rtibia 65.554
rfoot 5.75146 181.798
rtoes 15.1527
lfemur -6.29349 -6.17579 -26.7124
ltibia 22.2122
lfoot 529.584 -184.602
ltoes 5.61517
417
root 10.6704 17.8619 5.87107 158.436 -94.5164 -160.163
lowerback 4.89015 -4.06386 -4.36563
upperback -0.935274 -5.64296 1.52752
thorax -3.12822 -2.71737 4.41764
lowerneck -22.0854 -3.0801 -5.33029
upperneck 17.4451 -3.90972 6.0532
head 9.36141 -1.50748 2.41135
rclavicle -4.62671e-014 -3.57812e-015
rhumerus -63.6504 7.3552 -77.2134
rradius 57.8888
rwrist -5.6183
rhand -12.8644 -9.47222
rfingers 7.12502
rthumb 13.2239 -39.0328
lclavicle -4.62671e-014 -3.57812e-015
lhumerus -8.79992 -18.0167 93.9606
lradius 79.5981
lwrist 3.59578
lhand -17.0969 4.29044
lfingers 7.12502
lthumb 9.14187 34.0723
rfemur -62.4329 -11.0038 18.0708
rtibia 64.6893
rfoot 5.71745 181.687
rtoes 16.018
lfemur -5.28068 -6.59412 -26.8311
ltibia 21.6085
lfoot 529.459 -184.315
ltoes 5.53804
418
root 10.5371 17.8817 5.86084 159.07 -94.6141 -160.924
lowerback 5.05544 -4.24355 -4.35372
upperback -0.896633 -5.886 1.62365
thorax -3.14646 -2.83853 4.53627
lowerneck -22.1979 -2.88324 -5.15675
upperneck 17.4994 -3.64 5.83358
head 9.37474 -1.39229 2.34583
rclavicle -3.19298e-015 -4.37326e-015
rhumerus -65.0248 7.34174 -76.2206
rradius 58.1609
rwrist -5.75811
rhand -12.8541 -9.518
rfingers 7.12502
rthumb 13.2338 -39.0779
lclavicle -3.19298e-015 -4.37326e-015
lhumerus -7.76725 -17.9705 92.8563
lradius 81.0249
lwrist 3.77858
lhand -16.9986 4.18829
lfingers 7.12502
lthumb 9.23667 33.966
rfemur -64.9976 -10.7632 18.3443
rtibia 64.0676
rfoot 5.71451 181.671
rtoes 16.7448
lfemur -4.31033 -6.98198 -26.9326
ltibia 21.0199
lfoot 529.314 -184.016
ltoes 5.44639
419
root 10.4023 17.9006 5.84995 159.57 -94.6593 -161.519
lowerback 5.17126 -4.39531 -4.33405
upperback -0.866806 -6.08927 1.72317
thorax -3.14998 -2.94041 4.64845
lowerneck -22.2969 -2.69909 -4.9949
upperneck 17.5492 -3.39021 5.63678
head 9.3872 -1.28512 2.28729
rclavicle -1.4238e-014 0
rhumerus -66.3167 7.35935 -75.2411
rradius 58.3948
rwrist -5.9121
rhand -12.8331 -9.56018
rfingers 7.12502
rthumb 13.2541 -39.1188
lclavicle -1.4238e-014 0
lhumerus -6.73022 -17.8815 91.7276
lradius 82.2675
lwrist 3.90722
lhand -16.9114 4.11709
lfingers 7.12502
lthumb 9.32081 33.891
rfemur -67.469 -10.4558 18.6198
rtibia 63.6816
rfoot 5.73514 181.72
rtoes 17.266
lfemur -3.37982 -7.31146 -27.0082
ltibia 20.4502
lfoot 529.156 -183.738
ltoes 5.34571
420
root 10.2663 17.9187 5.83832 159.969 -94.6638 -161.996
lowerback 5.26294 -4.52203 -4.31369
upperback -0.846219 -6.25817 1.82538
thorax -3.15245 -3.02508 4.75972
lowerneck -22.3708 -2.52864 -4.84714
upperneck 17.5868 -3.16141 5.4645
head 9.39395 -1.18655 2.23653
rclavicle 1.17208e-013 -1.07344e-014
rhumerus -67.5321 7.4068 -74.2868
rradius 58.5903
rwrist -6.0869
rhand -12.7989 -9.562
rfingers 7.12502
rthumb 13.2871 -39.1184
lclavicle 1.17208e-013 -1.07344e-014
lhumerus -5.69852 -17.7501 90.5949
lradius 83.3201
lwrist 3.9829
lhand -16.816 4.07758
lfingers 7.12502
lthumb 9.41288 33.8474
rfemur -69.8184 -10.0959 18.8909
rtibia 63.5269
rfoot 5.77602 181.782
rtoes 17.5951
lfemur -2.47961 -7.56887 -27.0547
ltibia 19.9017
lfoot 528.996 -183.502
ltoes 5.23998
421
root 10.1294 17.9361 5.82592 160.247 -94.6406 -162.354
lowerback 5.35278 -4.63031 -4.30123
upperback -0.823494 -6.40289 1.92858
thorax -3.15286 -3.09775 4.87497
lowerneck -22.4284 -2.36866 -4.71315
upperneck 17.6034 -2.94848 5.31795
head 9.39282 -1.09379 2.19452
rclavicle -1.7257e-014 1.11319e-014
rhumerus -68.644 7.49126 -73.3719
rradius 58.7245
rwrist -6.28214
rhand -12.7504 -9.47013
rfingers 7.12502
rthumb 13.3338 -39.0235
lclavicle -1.7257e-014 1.11319e-014
lhumerus -4.66803 -17.5693 89.4671
lradius 84.1881
lwrist 4.02117
lhand -16.7284 4.05985
lfingers 7.12502
lthumb 9.4974 33.8258
rfemur -72.0112 -9.70182 19.1504
rtibia 63.6006
rfoot 5.84825 181.806
rtoes 17.682
lfemur -1.58878 -7.74383 -27.0761
ltibia 19.371
lfoot 528.843 -183.327
ltoes 5.14163
422
root 9.99218 17.9528 5.81299 160.548 -94.5875 -162.749
lowerback 5.45786 -4.71936 -4.28149
upperback -0.799119 -6.52213 2.03118
thorax -3.16333 -3.1576 4.98588
lowerneck -22.4567 -2.22154 -4.59321
upperneck 17.5949 -2.75621 5.20201
head 9.38029 -1.00867 2.16228
rclavicle 2.69602e-015 8.74653e-015
rhumerus -69.6573 7.6029 -72.5064
rradius 58.7982
rwrist -6.47302
rhand -12.6928 -9.32357
rfingers 7.12502
rthumb 13.3893 -38.8733
lclavicle 2.69602e-015 8.74653e-015
lhumerus -3.65547 -17.3537 88.3597
lradius 84.8819
lwrist 4.04858
lhand -16.6362 4.083
lfingers 7.12502
lthumb 9.58634 33.8449
rfemur -74.0216 -9.2778 19.4082
rtibia 63.8953
rfoot 5.921 181.728
rtoes 17.4765
lfemur -0.717833 -7.82386 -27.054
ltibia 18.8899
lfoot 528.693 -183.225
ltoes 5.04852
423
root 9.85519 17.9686 5.79936 160.96 -94.5141 -163.268
lowerback 5.58209 -4.79411 -4.25524
upperback -0.76759 -6.62251 2.13501
thorax -3.17945 -3.20819 5.09523
lowerneck -22.4879 -2.09217 -4.4891
upperneck 17.5799 -2.58903 5.11221
head 9.3685 -0.933319 2.13804
rclavicle -5.85918e-014 -7.95139e-015
rhumerus -70.5623 7.7367 -71.6975
rradius 58.8319
rwrist -6.64908
rhand -12.6233 -9.13801
rfingers 7.12502
rthumb 13.4563 -38.6833
lclavicle -5.85918e-014 -7.95139e-015
lhumerus -2.66487 -17.1017 87.2832
lradius 85.4168
lwrist 4.10272
lhand -16.5422 4.1165
lfingers 7.12502
lthumb 9.67707 33.8742
rfemur -75.8402 -8.83806 19.6664
rtibia 64.3913
rfoot 6.01112 181.516
rtoes 17.0478
lfemur 0.134961 -7.81683 -26.9829
ltibia 18.4524
lfoot 528.56 -183.197
ltoes 4.93716
424
root 9.71857 17.9835 5.78539 161.468 -94.4286 -163.903
lowerback 5.72474 -4.85687 -4.2195
upperback -0.726021 -6.70697 2.23385
thorax -3.19863 -3.25119 5.19489
lowerneck -22.4952 -1.97761 -4.40137
upperneck 17.538 -2.44436 5.0547
head 9.34535 -0.866268 2.12419
rclavicle -9.44227e-015 -1.27222e-014
rhumerus -71.3547 7.8872 -70.9617
rradius 58.8068
rwrist -6.79812
rhand -12.5574 -8.98286
rfingers 7.12502
rthumb 13.5198 -38.524
lclavicle -9.44227e-015 -1.27222e-014
lhumerus -1.71766 -16.8257 86.2466
lradius 85.8138
lwrist 4.19767
lhand -16.4694 4.14049
lfingers 7.12502
lthumb 9.7473 33.8949
rfemur -77.4488 -8.39796 19.9173
rtibia 65.0768
rfoot 6.10596 181.162
rtoes 16.408
lfemur 0.972259 -7.75154 -26.8779
ltibia 18.0651
lfoot 528.443 -183.223
ltoes 4.80164
425
root 9.58313 17.9972 5.77127 162.105 -94.3269 -164.669
lowerback 5.87782 -4.90742 -4.16879
upperback -0.67213 -6.77441 2.33018
thorax -3.21458 -3.28643 5.28333
lowerneck -22.5455 -1.88583 -4.33077
upperneck 17.507 -2.32911 5.01882
head 9.33585 -0.810959 2.11654
rclavicle 7.01958e-016 -5.56597e-015
rhumerus -72.0192 8.04424 -70.2983
rradius 58.7483
rwrist -6.90508
rhand -12.5255 -8.86855
rfingers 7.12502
rthumb 13.5506 -38.4076
lclavicle 7.01958e-016 -5.56597e-015
lhumerus -0.806582 -16.5298 85.253
lradius 86.094
lwrist 4.33752
lhand -16.3983 4.16422
lfingers 7.12502
lthumb 9.81588 33.9154
rfemur -78.8589 -7.95848 20.1659
rtibia 65.9251
rfoot 6.20474 180.679
rtoes 15.5595
lfemur 1.76361 -7.6387 -26.7369
ltibia 17.7439
lfoot 528.348 -183.29
ltoes 4.63216
426
root 9.44886 18.0097 5.75709 162.766 -94.2244 -165.449
lowerback 6.03062 -4.94811 -4.11295
upperback -0.616266 -6.82844 2.41635
thorax -3.23158 -3.31514 5.35775
lowerneck -22.6085 -1.81511 -4.26973
upperneck 17.483 -2.24375 5.00044
head 9.33309 -0.768072 2.11234
rclavicle 4.21175e-015 -2.14687e-014
rhumerus -72.5752 8.19551 -69.7153
rradius 58.6628
rwrist -6.9518
rhand -12.5172 -8.82551
rfingers 7.12502
rthumb 13.5586 -38.364
lclavicle 4.21175e-015 -2.14687e-014
lhumerus 0.040596 -16.2322 84.3118
lradius 86.2767
lwrist 4.50859
lhand -16.3549 4.17245
lfingers 7.12502
lthumb 9.85781 33.9217
rfemur -80.0774 -7.541 20.4008
rtibia 66.9159
rfoot 6.3078 180.125
rtoes 14.6562
lfemur 2.49637 -7.50533 -26.5826
ltibia 17.4949
lfoot 528.275 -183.387
ltoes 4.39859
427
root 9.31587 18.0209 5.74316 163.283 -94.1231 -166.064
lowerback 6.17218 -4.97988 -4.06031
upperback -0.566897 -6.87055 2.48879
thorax -3.25165 -3.33763 5.41844
lowerneck -22.6711 -1.76465 -4.217
upperneck 17.4655 -2.18645 4.99245
head 9.33425 -0.737693 2.10913
rclavicle -1.34614e-014 -7.95139e-016
rhumerus -73.0322 8.33805 -69.2123
rradius 58.5587
rwrist -6.94603
rhand -12.526 -8.83075
rfingers 7.12502
rthumb 13.5501 -38.3698
lclavicle -1.34614e-014 -7.95139e-016
lhumerus 0.800476 -15.9362 83.4303
lradius 86.3842
lwrist 4.6895
lhand -16.3162 4.16835
lfingers 7.12502
lthumb 9.89515 33.9158
rfemur -81.1191 -7.15384 20.616
rtibia 68.0235
rfoot 6.40685 179.561
rtoes 13.7402
lfemur 3.15479 -7.36971 -26.4367
ltibia 17.322
lfoot 528.222 -183.497
ltoes 4.07702
428
root 9.18412 18.0307 5.72962 163.482 -94.0298 -166.327
lowerback 6.29137 -5.00544 -4.0238
upperback -0.525965 -6.90501 2.54553
thorax -3.26889 -3.35592 5.46956
lowerneck -22.7386 -1.72977 -4.17038
upperneck 17.4569 -2.15013 4.98973
head 9.34064 -0.716864 2.10583
rclavicle 1.45982e-015 1.03368e-014
rhumerus -73.3854 8.46908 -68.7882
rradius 58.4402
rwrist -6.90357
rhand -12.5537 -8.87623
rfingers 7.12502
rthumb 13.5233 -38.4171
lclavicle 1.45982e-015 1.03368e-014
lhumerus 1.46888 -15.6435 82.6098
lradius 86.4329
lwrist 4.85275
lhand -16.2723 4.15453
lfingers 7.12502
lthumb 9.93747 33.9
rfemur -81.9973 -6.80841 20.805
rtibia 69.2286
rfoot 6.50019 179.062
rtoes 12.8651
lfemur 3.73197 -7.2518 -26.3221
ltibia 17.2217
lfoot 528.19 -183.605
ltoes 3.6641
